<mxfile host="Electron" modified="2024-05-30T19:12:04.885Z" agent="Mozilla/5.0 (X11; Linux x86_64) AppleWebKit/537.36 (KHTML, like Gecko) draw.io/23.0.2 Chrome/120.0.6099.109 Electron/28.1.0 Safari/537.36" etag="NAMFu3pTqNmEZf5_fRUi" version="23.0.2" type="device">
  <diagram name="Page-1" id="1n13zg6C0ZVKtAoltWwU">
    <mxGraphModel dx="4214" dy="1754" grid="1" gridSize="10" guides="1" tooltips="1" connect="1" arrows="1" fold="1" page="1" pageScale="1" pageWidth="850" pageHeight="1100" math="0" shadow="0">
      <root>
        <mxCell id="0" />
        <mxCell id="1" parent="0" />
        <mxCell id="HQvbD4qodzHjJCZLTq41-1" value="" style="rounded=0;whiteSpace=wrap;html=1;fillColor=#dae8fc;strokeColor=#6c8ebf;" vertex="1" parent="1">
          <mxGeometry x="500" y="70" width="320" height="240" as="geometry" />
        </mxCell>
        <mxCell id="lKQ-K-jLOuagN1vIVgvl-43" value="" style="rounded=0;whiteSpace=wrap;html=1;fillColor=#fff2cc;strokeColor=#d6b656;" parent="1" vertex="1">
          <mxGeometry x="500" y="320" width="320" height="400" as="geometry" />
        </mxCell>
        <mxCell id="jMCKYLKOf34k-Qqu3dMN-1" value="" style="rounded=0;whiteSpace=wrap;html=1;fillColor=#d5e8d4;strokeColor=#82b366;" parent="1" vertex="1">
          <mxGeometry x="160" width="300" height="310" as="geometry" />
        </mxCell>
        <mxCell id="osExwpDiNaJcnEhwoJK3-43" value="" style="rounded=0;whiteSpace=wrap;html=1;fillColor=#ffe6cc;strokeColor=#d79b00;" parent="1" vertex="1">
          <mxGeometry y="320" width="240" height="330" as="geometry" />
        </mxCell>
        <mxCell id="lKQ-K-jLOuagN1vIVgvl-52" style="edgeStyle=orthogonalEdgeStyle;rounded=0;orthogonalLoop=1;jettySize=auto;html=1;exitX=0;exitY=0.5;exitDx=0;exitDy=0;entryX=1;entryY=0.5;entryDx=0;entryDy=0;" parent="1" source="qCLlE8huGPxuzv83Q3RM-1" target="lKQ-K-jLOuagN1vIVgvl-51" edge="1">
          <mxGeometry relative="1" as="geometry" />
        </mxCell>
        <mxCell id="qCLlE8huGPxuzv83Q3RM-1" value="UART" style="rounded=0;whiteSpace=wrap;html=1;" parent="1" vertex="1">
          <mxGeometry x="770" y="10" width="40" height="40" as="geometry" />
        </mxCell>
        <mxCell id="ML02YGGaZOUxn2QXKXOb-63" style="edgeStyle=orthogonalEdgeStyle;rounded=0;orthogonalLoop=1;jettySize=auto;html=1;exitX=0.5;exitY=1;exitDx=0;exitDy=0;entryX=0.5;entryY=0;entryDx=0;entryDy=0;" parent="1" edge="1">
          <mxGeometry relative="1" as="geometry">
            <mxPoint x="460" y="-100" as="targetPoint" />
          </mxGeometry>
        </mxCell>
        <mxCell id="ML02YGGaZOUxn2QXKXOb-17" value="" style="rounded=0;whiteSpace=wrap;html=1;" parent="1" vertex="1">
          <mxGeometry x="20" y="330" width="200" height="300" as="geometry" />
        </mxCell>
        <mxCell id="ML02YGGaZOUxn2QXKXOb-18" value="Sensor Reader" style="text;html=1;strokeColor=none;fillColor=none;align=center;verticalAlign=middle;whiteSpace=wrap;rounded=0;" parent="1" vertex="1">
          <mxGeometry x="20" y="330" width="100" height="30" as="geometry" />
        </mxCell>
        <mxCell id="ML02YGGaZOUxn2QXKXOb-19" value="" style="rounded=0;whiteSpace=wrap;html=1;" parent="1" vertex="1">
          <mxGeometry x="530" y="330" width="270" height="370" as="geometry" />
        </mxCell>
        <mxCell id="ML02YGGaZOUxn2QXKXOb-20" value="Motor Controller" style="text;html=1;strokeColor=none;fillColor=none;align=center;verticalAlign=middle;whiteSpace=wrap;rounded=0;" parent="1" vertex="1">
          <mxGeometry x="530" y="330" width="100" height="30" as="geometry" />
        </mxCell>
        <mxCell id="ML02YGGaZOUxn2QXKXOb-21" value="&quot;VL53 API mÃ¡gia&quot;" style="text;html=1;strokeColor=none;fillColor=none;align=center;verticalAlign=middle;whiteSpace=wrap;rounded=0;" parent="1" vertex="1">
          <mxGeometry x="70" y="370" width="100" height="30" as="geometry" />
        </mxCell>
        <mxCell id="ML02YGGaZOUxn2QXKXOb-22" value="vTaskDelay(100ms)" style="rounded=0;whiteSpace=wrap;html=1;" parent="1" vertex="1">
          <mxGeometry x="80" y="400" width="120" height="20" as="geometry" />
        </mxCell>
        <mxCell id="ML02YGGaZOUxn2QXKXOb-23" value="Read sensor 1" style="rounded=0;whiteSpace=wrap;html=1;" parent="1" vertex="1">
          <mxGeometry x="80" y="450" width="90" height="20" as="geometry" />
        </mxCell>
        <mxCell id="ML02YGGaZOUxn2QXKXOb-24" value="Read sensor 2" style="rounded=0;whiteSpace=wrap;html=1;" parent="1" vertex="1">
          <mxGeometry x="90" y="460" width="90" height="20" as="geometry" />
        </mxCell>
        <mxCell id="ML02YGGaZOUxn2QXKXOb-25" value="Read sensor 3" style="rounded=0;whiteSpace=wrap;html=1;" parent="1" vertex="1">
          <mxGeometry x="100" y="470" width="95" height="20" as="geometry" />
        </mxCell>
        <mxCell id="ML02YGGaZOUxn2QXKXOb-33" style="edgeStyle=orthogonalEdgeStyle;rounded=0;orthogonalLoop=1;jettySize=auto;html=1;exitX=0.5;exitY=1;exitDx=0;exitDy=0;entryX=0.5;entryY=0;entryDx=0;entryDy=0;" parent="1" source="ML02YGGaZOUxn2QXKXOb-26" target="ML02YGGaZOUxn2QXKXOb-32" edge="1">
          <mxGeometry relative="1" as="geometry" />
        </mxCell>
        <mxCell id="ML02YGGaZOUxn2QXKXOb-26" value="Read sensor 4" style="rounded=0;whiteSpace=wrap;html=1;" parent="1" vertex="1">
          <mxGeometry x="110" y="480" width="90" height="20" as="geometry" />
        </mxCell>
        <mxCell id="ML02YGGaZOUxn2QXKXOb-27" style="edgeStyle=orthogonalEdgeStyle;rounded=0;orthogonalLoop=1;jettySize=auto;html=1;exitX=0.5;exitY=1;exitDx=0;exitDy=0;entryX=0.695;entryY=0.098;entryDx=0;entryDy=0;entryPerimeter=0;" parent="1" source="ML02YGGaZOUxn2QXKXOb-22" target="ML02YGGaZOUxn2QXKXOb-23" edge="1">
          <mxGeometry relative="1" as="geometry" />
        </mxCell>
        <mxCell id="ML02YGGaZOUxn2QXKXOb-30" value="" style="rounded=1;whiteSpace=wrap;html=1;" parent="1" vertex="1">
          <mxGeometry x="260" y="340" width="190" height="340" as="geometry" />
        </mxCell>
        <mxCell id="ML02YGGaZOUxn2QXKXOb-34" style="edgeStyle=orthogonalEdgeStyle;rounded=0;orthogonalLoop=1;jettySize=auto;html=1;entryX=0;entryY=0.5;entryDx=0;entryDy=0;" parent="1" source="ML02YGGaZOUxn2QXKXOb-32" target="ML02YGGaZOUxn2QXKXOb-22" edge="1">
          <mxGeometry relative="1" as="geometry">
            <Array as="points">
              <mxPoint x="140" y="600" />
              <mxPoint x="60" y="600" />
              <mxPoint x="60" y="410" />
            </Array>
          </mxGeometry>
        </mxCell>
        <mxCell id="ML02YGGaZOUxn2QXKXOb-36" style="edgeStyle=orthogonalEdgeStyle;rounded=0;orthogonalLoop=1;jettySize=auto;html=1;entryX=0;entryY=0.5;entryDx=0;entryDy=0;" parent="1" source="ML02YGGaZOUxn2QXKXOb-32" target="ML02YGGaZOUxn2QXKXOb-35" edge="1">
          <mxGeometry relative="1" as="geometry">
            <Array as="points">
              <mxPoint x="250" y="565" />
              <mxPoint x="250" y="390" />
            </Array>
          </mxGeometry>
        </mxCell>
        <mxCell id="ML02YGGaZOUxn2QXKXOb-32" value="set new distance values measurement" style="rounded=0;whiteSpace=wrap;html=1;" parent="1" vertex="1">
          <mxGeometry x="80" y="540" width="120" height="50" as="geometry" />
        </mxCell>
        <mxCell id="ML02YGGaZOUxn2QXKXOb-35" value="distance" style="rounded=0;whiteSpace=wrap;html=1;" parent="1" vertex="1">
          <mxGeometry x="300" y="370" width="120" height="40" as="geometry" />
        </mxCell>
        <mxCell id="ML02YGGaZOUxn2QXKXOb-41" value="actual speed" style="rounded=0;whiteSpace=wrap;html=1;" parent="1" vertex="1">
          <mxGeometry x="300" y="530" width="120" height="40" as="geometry" />
        </mxCell>
        <mxCell id="HQvbD4qodzHjJCZLTq41-10" style="edgeStyle=orthogonalEdgeStyle;rounded=0;orthogonalLoop=1;jettySize=auto;html=1;exitX=0.5;exitY=1;exitDx=0;exitDy=0;entryX=0.5;entryY=0;entryDx=0;entryDy=0;" edge="1" parent="1" source="ML02YGGaZOUxn2QXKXOb-42" target="HQvbD4qodzHjJCZLTq41-7">
          <mxGeometry relative="1" as="geometry" />
        </mxCell>
        <mxCell id="ML02YGGaZOUxn2QXKXOb-42" value="vTaskDelay(10ms)" style="rounded=0;whiteSpace=wrap;html=1;" parent="1" vertex="1">
          <mxGeometry x="560" y="390" width="120" height="20" as="geometry" />
        </mxCell>
        <mxCell id="ML02YGGaZOUxn2QXKXOb-60" style="edgeStyle=orthogonalEdgeStyle;rounded=0;orthogonalLoop=1;jettySize=auto;html=1;exitX=0.5;exitY=1;exitDx=0;exitDy=0;" parent="1" edge="1">
          <mxGeometry relative="1" as="geometry">
            <mxPoint x="570" y="130" as="sourcePoint" />
            <mxPoint x="570" y="130" as="targetPoint" />
          </mxGeometry>
        </mxCell>
        <mxCell id="lKQ-K-jLOuagN1vIVgvl-1" value="TxQueue" style="rounded=0;whiteSpace=wrap;html=1;" parent="1" vertex="1">
          <mxGeometry x="630" y="83.12" width="80" height="23.75" as="geometry" />
        </mxCell>
        <mxCell id="lKQ-K-jLOuagN1vIVgvl-2" value="RxQueue" style="rounded=0;whiteSpace=wrap;html=1;" parent="1" vertex="1">
          <mxGeometry x="275" y="18.129999999999995" width="80" height="23.75" as="geometry" />
        </mxCell>
        <mxCell id="lKQ-K-jLOuagN1vIVgvl-8" value="" style="rounded=0;whiteSpace=wrap;html=1;" parent="1" vertex="1">
          <mxGeometry x="165" y="60" width="280" height="220" as="geometry" />
        </mxCell>
        <mxCell id="lKQ-K-jLOuagN1vIVgvl-10" value="RxProcessor" style="text;html=1;strokeColor=none;fillColor=none;align=center;verticalAlign=middle;whiteSpace=wrap;rounded=0;" parent="1" vertex="1">
          <mxGeometry x="165" y="60" width="80" height="30" as="geometry" />
        </mxCell>
        <mxCell id="lKQ-K-jLOuagN1vIVgvl-11" value="" style="rounded=0;whiteSpace=wrap;html=1;" parent="1" vertex="1">
          <mxGeometry x="530" y="130" width="270" height="150" as="geometry" />
        </mxCell>
        <mxCell id="lKQ-K-jLOuagN1vIVgvl-12" value="TxProcessor" style="text;html=1;strokeColor=none;fillColor=none;align=center;verticalAlign=middle;whiteSpace=wrap;rounded=0;" parent="1" vertex="1">
          <mxGeometry x="530" y="130" width="80" height="30" as="geometry" />
        </mxCell>
        <mxCell id="lKQ-K-jLOuagN1vIVgvl-19" style="edgeStyle=orthogonalEdgeStyle;rounded=0;orthogonalLoop=1;jettySize=auto;html=1;exitX=0.5;exitY=1;exitDx=0;exitDy=0;entryX=0.5;entryY=0;entryDx=0;entryDy=0;" parent="1" source="lKQ-K-jLOuagN1vIVgvl-14" target="lKQ-K-jLOuagN1vIVgvl-22" edge="1">
          <mxGeometry relative="1" as="geometry">
            <mxPoint x="315" y="110" as="targetPoint" />
          </mxGeometry>
        </mxCell>
        <mxCell id="lKQ-K-jLOuagN1vIVgvl-14" value="xQueueReceive()" style="rounded=0;whiteSpace=wrap;html=1;" parent="1" vertex="1">
          <mxGeometry x="260" y="80" width="110" height="20" as="geometry" />
        </mxCell>
        <mxCell id="lKQ-K-jLOuagN1vIVgvl-39" style="edgeStyle=orthogonalEdgeStyle;rounded=0;orthogonalLoop=1;jettySize=auto;html=1;exitX=0.5;exitY=1;exitDx=0;exitDy=0;entryX=0.5;entryY=0;entryDx=0;entryDy=0;" parent="1" source="lKQ-K-jLOuagN1vIVgvl-16" target="lKQ-K-jLOuagN1vIVgvl-38" edge="1">
          <mxGeometry relative="1" as="geometry" />
        </mxCell>
        <mxCell id="lKQ-K-jLOuagN1vIVgvl-16" value="xQueueReceive()" style="rounded=0;whiteSpace=wrap;html=1;" parent="1" vertex="1">
          <mxGeometry x="615" y="160" width="110" height="20" as="geometry" />
        </mxCell>
        <mxCell id="lKQ-K-jLOuagN1vIVgvl-17" style="edgeStyle=orthogonalEdgeStyle;rounded=0;orthogonalLoop=1;jettySize=auto;html=1;exitX=0.5;exitY=1;exitDx=0;exitDy=0;entryX=0.5;entryY=0;entryDx=0;entryDy=0;" parent="1" source="lKQ-K-jLOuagN1vIVgvl-1" target="lKQ-K-jLOuagN1vIVgvl-16" edge="1">
          <mxGeometry relative="1" as="geometry" />
        </mxCell>
        <mxCell id="lKQ-K-jLOuagN1vIVgvl-15" style="edgeStyle=orthogonalEdgeStyle;rounded=0;orthogonalLoop=1;jettySize=auto;html=1;exitX=0.5;exitY=1;exitDx=0;exitDy=0;entryX=0.5;entryY=0;entryDx=0;entryDy=0;" parent="1" source="lKQ-K-jLOuagN1vIVgvl-2" target="lKQ-K-jLOuagN1vIVgvl-14" edge="1">
          <mxGeometry relative="1" as="geometry" />
        </mxCell>
        <mxCell id="lKQ-K-jLOuagN1vIVgvl-32" style="edgeStyle=orthogonalEdgeStyle;rounded=0;orthogonalLoop=1;jettySize=auto;html=1;exitX=0.5;exitY=1;exitDx=0;exitDy=0;entryX=0.25;entryY=0;entryDx=0;entryDy=0;" parent="1" source="lKQ-K-jLOuagN1vIVgvl-21" target="lKQ-K-jLOuagN1vIVgvl-31" edge="1">
          <mxGeometry relative="1" as="geometry" />
        </mxCell>
        <mxCell id="lKQ-K-jLOuagN1vIVgvl-36" style="edgeStyle=orthogonalEdgeStyle;rounded=0;orthogonalLoop=1;jettySize=auto;html=1;exitX=0.25;exitY=1;exitDx=0;exitDy=0;entryX=0.25;entryY=0;entryDx=0;entryDy=0;strokeWidth=2;startArrow=classic;startFill=1;endArrow=none;endFill=0;" parent="1" source="lKQ-K-jLOuagN1vIVgvl-21" target="ML02YGGaZOUxn2QXKXOb-30" edge="1">
          <mxGeometry relative="1" as="geometry">
            <Array as="points">
              <mxPoint x="233" y="290" />
              <mxPoint x="308" y="290" />
            </Array>
          </mxGeometry>
        </mxCell>
        <mxCell id="lKQ-K-jLOuagN1vIVgvl-21" value="read value" style="rounded=0;whiteSpace=wrap;html=1;" parent="1" vertex="1">
          <mxGeometry x="215" y="160" width="70" height="20" as="geometry" />
        </mxCell>
        <mxCell id="lKQ-K-jLOuagN1vIVgvl-25" style="edgeStyle=orthogonalEdgeStyle;rounded=0;orthogonalLoop=1;jettySize=auto;html=1;exitX=0;exitY=0.5;exitDx=0;exitDy=0;entryX=0.5;entryY=0;entryDx=0;entryDy=0;" parent="1" source="lKQ-K-jLOuagN1vIVgvl-22" target="lKQ-K-jLOuagN1vIVgvl-21" edge="1">
          <mxGeometry relative="1" as="geometry" />
        </mxCell>
        <mxCell id="lKQ-K-jLOuagN1vIVgvl-27" style="edgeStyle=orthogonalEdgeStyle;rounded=0;orthogonalLoop=1;jettySize=auto;html=1;exitX=1;exitY=0.5;exitDx=0;exitDy=0;entryX=0.5;entryY=0;entryDx=0;entryDy=0;" parent="1" source="lKQ-K-jLOuagN1vIVgvl-22" target="lKQ-K-jLOuagN1vIVgvl-23" edge="1">
          <mxGeometry relative="1" as="geometry" />
        </mxCell>
        <mxCell id="lKQ-K-jLOuagN1vIVgvl-22" value="R / W" style="rhombus;whiteSpace=wrap;html=1;" parent="1" vertex="1">
          <mxGeometry x="275" y="120" width="80" height="40" as="geometry" />
        </mxCell>
        <mxCell id="lKQ-K-jLOuagN1vIVgvl-33" style="edgeStyle=orthogonalEdgeStyle;rounded=0;orthogonalLoop=1;jettySize=auto;html=1;exitX=0.5;exitY=1;exitDx=0;exitDy=0;entryX=0.75;entryY=0;entryDx=0;entryDy=0;" parent="1" source="lKQ-K-jLOuagN1vIVgvl-23" target="lKQ-K-jLOuagN1vIVgvl-31" edge="1">
          <mxGeometry relative="1" as="geometry" />
        </mxCell>
        <mxCell id="HQvbD4qodzHjJCZLTq41-20" style="edgeStyle=orthogonalEdgeStyle;rounded=0;orthogonalLoop=1;jettySize=auto;html=1;exitX=0.75;exitY=1;exitDx=0;exitDy=0;entryX=0.75;entryY=0;entryDx=0;entryDy=0;strokeWidth=2;" edge="1" parent="1" source="lKQ-K-jLOuagN1vIVgvl-23" target="ML02YGGaZOUxn2QXKXOb-30">
          <mxGeometry relative="1" as="geometry">
            <Array as="points">
              <mxPoint x="396" y="290" />
              <mxPoint x="403" y="290" />
            </Array>
          </mxGeometry>
        </mxCell>
        <mxCell id="lKQ-K-jLOuagN1vIVgvl-23" value="write value" style="rounded=0;whiteSpace=wrap;html=1;" parent="1" vertex="1">
          <mxGeometry x="345" y="160" width="67.5" height="20" as="geometry" />
        </mxCell>
        <mxCell id="lKQ-K-jLOuagN1vIVgvl-34" style="edgeStyle=orthogonalEdgeStyle;rounded=0;orthogonalLoop=1;jettySize=auto;html=1;exitX=0.5;exitY=1;exitDx=0;exitDy=0;entryX=0;entryY=0.5;entryDx=0;entryDy=0;" parent="1" source="lKQ-K-jLOuagN1vIVgvl-31" target="lKQ-K-jLOuagN1vIVgvl-14" edge="1">
          <mxGeometry relative="1" as="geometry">
            <Array as="points">
              <mxPoint x="315" y="270" />
              <mxPoint x="185" y="270" />
              <mxPoint x="185" y="90" />
            </Array>
          </mxGeometry>
        </mxCell>
        <mxCell id="lKQ-K-jLOuagN1vIVgvl-35" style="edgeStyle=orthogonalEdgeStyle;rounded=0;orthogonalLoop=1;jettySize=auto;html=1;exitX=1;exitY=0.5;exitDx=0;exitDy=0;entryX=0;entryY=0.5;entryDx=0;entryDy=0;" parent="1" source="lKQ-K-jLOuagN1vIVgvl-31" target="lKQ-K-jLOuagN1vIVgvl-1" edge="1">
          <mxGeometry relative="1" as="geometry">
            <Array as="points">
              <mxPoint x="470" y="205" />
              <mxPoint x="470" y="95" />
            </Array>
          </mxGeometry>
        </mxCell>
        <mxCell id="lKQ-K-jLOuagN1vIVgvl-31" value="generate answer" style="rounded=0;whiteSpace=wrap;html=1;" parent="1" vertex="1">
          <mxGeometry x="255" y="220" width="120" height="30" as="geometry" />
        </mxCell>
        <mxCell id="lKQ-K-jLOuagN1vIVgvl-56" style="edgeStyle=orthogonalEdgeStyle;rounded=0;orthogonalLoop=1;jettySize=auto;html=1;exitX=0.5;exitY=1;exitDx=0;exitDy=0;entryX=0;entryY=0.5;entryDx=0;entryDy=0;" parent="1" source="lKQ-K-jLOuagN1vIVgvl-38" target="lKQ-K-jLOuagN1vIVgvl-16" edge="1">
          <mxGeometry relative="1" as="geometry">
            <Array as="points">
              <mxPoint x="670" y="260" />
              <mxPoint x="560" y="260" />
              <mxPoint x="560" y="170" />
            </Array>
          </mxGeometry>
        </mxCell>
        <mxCell id="lKQ-K-jLOuagN1vIVgvl-57" style="edgeStyle=orthogonalEdgeStyle;rounded=0;orthogonalLoop=1;jettySize=auto;html=1;exitX=1;exitY=0.5;exitDx=0;exitDy=0;entryX=0.5;entryY=1;entryDx=0;entryDy=0;" parent="1" source="lKQ-K-jLOuagN1vIVgvl-38" target="qCLlE8huGPxuzv83Q3RM-1" edge="1">
          <mxGeometry relative="1" as="geometry" />
        </mxCell>
        <mxCell id="lKQ-K-jLOuagN1vIVgvl-38" value="DMA send string" style="rounded=0;whiteSpace=wrap;html=1;" parent="1" vertex="1">
          <mxGeometry x="610" y="210" width="120" height="30" as="geometry" />
        </mxCell>
        <mxCell id="HQvbD4qodzHjJCZLTq41-21" style="edgeStyle=orthogonalEdgeStyle;rounded=0;orthogonalLoop=1;jettySize=auto;html=1;entryX=1;entryY=0.5;entryDx=0;entryDy=0;" edge="1" parent="1" source="lKQ-K-jLOuagN1vIVgvl-51" target="lKQ-K-jLOuagN1vIVgvl-2">
          <mxGeometry relative="1" as="geometry" />
        </mxCell>
        <mxCell id="lKQ-K-jLOuagN1vIVgvl-51" value="" style="rounded=0;whiteSpace=wrap;html=1;" parent="1" vertex="1">
          <mxGeometry x="580" width="120" height="60" as="geometry" />
        </mxCell>
        <mxCell id="qCLlE8huGPxuzv83Q3RM-9" value="RxBuffer" style="rounded=0;whiteSpace=wrap;html=1;" parent="1" vertex="1">
          <mxGeometry x="630" y="30" width="60" height="20" as="geometry" />
        </mxCell>
        <mxCell id="lKQ-K-jLOuagN1vIVgvl-53" value="USART IRQ" style="text;html=1;strokeColor=none;fillColor=none;align=center;verticalAlign=middle;whiteSpace=wrap;rounded=0;" parent="1" vertex="1">
          <mxGeometry x="580" width="120" height="20" as="geometry" />
        </mxCell>
        <mxCell id="HQvbD4qodzHjJCZLTq41-12" style="edgeStyle=orthogonalEdgeStyle;rounded=0;orthogonalLoop=1;jettySize=auto;html=1;exitX=1;exitY=0.5;exitDx=0;exitDy=0;entryX=0;entryY=0.5;entryDx=0;entryDy=0;" edge="1" parent="1" source="HQvbD4qodzHjJCZLTq41-3" target="HQvbD4qodzHjJCZLTq41-11">
          <mxGeometry relative="1" as="geometry">
            <Array as="points">
              <mxPoint x="470" y="470" />
              <mxPoint x="470" y="505" />
            </Array>
          </mxGeometry>
        </mxCell>
        <mxCell id="HQvbD4qodzHjJCZLTq41-3" value="target speed" style="rounded=0;whiteSpace=wrap;html=1;" vertex="1" parent="1">
          <mxGeometry x="300" y="450" width="120" height="40" as="geometry" />
        </mxCell>
        <mxCell id="HQvbD4qodzHjJCZLTq41-8" style="edgeStyle=orthogonalEdgeStyle;rounded=0;orthogonalLoop=1;jettySize=auto;html=1;entryX=0;entryY=0.75;entryDx=0;entryDy=0;" edge="1" parent="1" source="HQvbD4qodzHjJCZLTq41-4" target="HQvbD4qodzHjJCZLTq41-7">
          <mxGeometry relative="1" as="geometry">
            <Array as="points">
              <mxPoint x="490" y="630" />
              <mxPoint x="490" y="460" />
            </Array>
          </mxGeometry>
        </mxCell>
        <mxCell id="HQvbD4qodzHjJCZLTq41-4" value="encoder" style="rounded=0;whiteSpace=wrap;html=1;" vertex="1" parent="1">
          <mxGeometry x="300" y="610" width="120" height="40" as="geometry" />
        </mxCell>
        <mxCell id="HQvbD4qodzHjJCZLTq41-6" style="edgeStyle=orthogonalEdgeStyle;rounded=0;orthogonalLoop=1;jettySize=auto;html=1;entryX=0.5;entryY=1;entryDx=0;entryDy=0;" edge="1" parent="1" source="HQvbD4qodzHjJCZLTq41-5" target="HQvbD4qodzHjJCZLTq41-4">
          <mxGeometry relative="1" as="geometry" />
        </mxCell>
        <mxCell id="HQvbD4qodzHjJCZLTq41-5" value="TIMER IRQ" style="rounded=0;whiteSpace=wrap;html=1;" vertex="1" parent="1">
          <mxGeometry x="125" y="660" width="120" height="60" as="geometry" />
        </mxCell>
        <mxCell id="HQvbD4qodzHjJCZLTq41-9" style="edgeStyle=orthogonalEdgeStyle;rounded=0;orthogonalLoop=1;jettySize=auto;html=1;entryX=1;entryY=0.5;entryDx=0;entryDy=0;" edge="1" parent="1" source="HQvbD4qodzHjJCZLTq41-7" target="ML02YGGaZOUxn2QXKXOb-41">
          <mxGeometry relative="1" as="geometry">
            <Array as="points">
              <mxPoint x="480" y="440" />
              <mxPoint x="480" y="550" />
            </Array>
          </mxGeometry>
        </mxCell>
        <mxCell id="HQvbD4qodzHjJCZLTq41-18" style="edgeStyle=orthogonalEdgeStyle;rounded=0;orthogonalLoop=1;jettySize=auto;html=1;exitX=0.5;exitY=1;exitDx=0;exitDy=0;entryX=0.5;entryY=0;entryDx=0;entryDy=0;" edge="1" parent="1" source="HQvbD4qodzHjJCZLTq41-7" target="HQvbD4qodzHjJCZLTq41-11">
          <mxGeometry relative="1" as="geometry" />
        </mxCell>
        <mxCell id="HQvbD4qodzHjJCZLTq41-7" value="calculate speed" style="rounded=0;whiteSpace=wrap;html=1;" vertex="1" parent="1">
          <mxGeometry x="560" y="430" width="120" height="40" as="geometry" />
        </mxCell>
        <mxCell id="HQvbD4qodzHjJCZLTq41-14" style="edgeStyle=orthogonalEdgeStyle;rounded=0;orthogonalLoop=1;jettySize=auto;html=1;exitX=0.5;exitY=1;exitDx=0;exitDy=0;entryX=0.5;entryY=0;entryDx=0;entryDy=0;" edge="1" parent="1" source="HQvbD4qodzHjJCZLTq41-11" target="HQvbD4qodzHjJCZLTq41-13">
          <mxGeometry relative="1" as="geometry" />
        </mxCell>
        <mxCell id="HQvbD4qodzHjJCZLTq41-11" value="read target speed" style="rounded=0;whiteSpace=wrap;html=1;" vertex="1" parent="1">
          <mxGeometry x="560" y="490" width="120" height="30" as="geometry" />
        </mxCell>
        <mxCell id="HQvbD4qodzHjJCZLTq41-16" style="edgeStyle=orthogonalEdgeStyle;rounded=0;orthogonalLoop=1;jettySize=auto;html=1;entryX=0.5;entryY=0;entryDx=0;entryDy=0;" edge="1" parent="1" source="HQvbD4qodzHjJCZLTq41-13" target="HQvbD4qodzHjJCZLTq41-15">
          <mxGeometry relative="1" as="geometry" />
        </mxCell>
        <mxCell id="HQvbD4qodzHjJCZLTq41-13" value="calculate encoder value" style="rounded=0;whiteSpace=wrap;html=1;" vertex="1" parent="1">
          <mxGeometry x="550" y="540" width="140" height="30" as="geometry" />
        </mxCell>
        <mxCell id="HQvbD4qodzHjJCZLTq41-17" style="edgeStyle=orthogonalEdgeStyle;rounded=0;orthogonalLoop=1;jettySize=auto;html=1;exitX=0.5;exitY=1;exitDx=0;exitDy=0;entryX=0;entryY=0.5;entryDx=0;entryDy=0;" edge="1" parent="1" source="HQvbD4qodzHjJCZLTq41-15" target="ML02YGGaZOUxn2QXKXOb-42">
          <mxGeometry relative="1" as="geometry">
            <Array as="points">
              <mxPoint x="620" y="680" />
              <mxPoint x="540" y="680" />
              <mxPoint x="540" y="400" />
            </Array>
          </mxGeometry>
        </mxCell>
        <mxCell id="HQvbD4qodzHjJCZLTq41-15" value="set motor PWM" style="rounded=0;whiteSpace=wrap;html=1;" vertex="1" parent="1">
          <mxGeometry x="560" y="640" width="120" height="30" as="geometry" />
        </mxCell>
        <mxCell id="HQvbD4qodzHjJCZLTq41-19" value="PID" style="rounded=0;whiteSpace=wrap;html=1;dashed=1;dashPattern=12 12;" vertex="1" parent="1">
          <mxGeometry x="710" y="580" width="80" height="60" as="geometry" />
        </mxCell>
      </root>
    </mxGraphModel>
  </diagram>
</mxfile>
